<?xml version="1.0" encoding="UTF-8"?><svg id="Layer_1" xmlns="http://www.w3.org/2000/svg" viewBox="0 0 325.27 97.55"><defs><style>.cls-1{fill:#bf1e2d;}.cls-2{fill:#bcbec0;}.cls-3{fill:#00aeef;}.cls-4{fill:#f1f1f2;}.cls-5{fill:#a7a9ac;}</style></defs><g id="g3470"><path id="path3472" class="cls-2" d="M38.45,63.79l.04-.11h16.75l8.37-14.45h0s-16.75,0-16.75,0l-8.41,14.56Z"/></g><g id="g3474"><path id="path3476" class="cls-3" d="M40.05,62.8h14.67l7.34-12.67h-14.7l-7.32,12.67ZM55.75,64.58h-17.27v-.68l-.87-.41.25-.69h.13l8.35-14.46h17.78l.51.89-.25.45-8.63,14.9Z"/></g><g id="g3478"><path id="path3480" class="cls-4" d="M38.41,34.55h0s8.45,14.68,8.45,14.68l16.69-.05.07-.11-8.38-14.52h-16.81Z"/></g><g id="g3482"><path id="path3484" class="cls-3" d="M39.94,35.44l7.42,12.9,14.76-.05-7.42-12.86h-14.76ZM46.34,50.13l-10.07-17.5,2.33,1.04h17.14l8.9,15.41-.58,1-17.72.05Z"/></g><g id="g3486"><path id="path3488" class="cls-1" d="M38.4,34.55l-8.41,14.56,8.45,14.69h0s8.4-14.56,8.4-14.56l-8.45-14.69Z"/></g><g id="g3490"><path id="path3492" class="cls-3" d="M31.02,49.11l7.43,12.91,7.38-12.78-7.42-12.9-7.38,12.78ZM38.39,65.68l-.74-1.48-8.69-15.09,9.44-16.35,9.48,16.47-9.49,16.45Z"/></g><g id="g3494"><path id="path3496" class="cls-3" d="M64.21,77.34l-7.38-12.79h15.77l7.88-13.64,7.37,12.76-7.89,13.67h-15.74ZM54.77,91.89h-15.79l-7.38-12.77h15.79l7.87-13.63,7.37,12.77-7.87,13.63ZM5.88,63.67l7.89-13.67h14.75l-7.89,13.67,7.89,13.67h-14.75l-7.89-13.67ZM13.7,20.88h14.77l-7.89,13.67,7.89,13.67h-14.77l-7.89-13.67,7.89-13.67ZM38.91,6.32h15.78l7.89,13.67-7.36,12.75-7.88-13.65h-15.81l7.37-12.77ZM87.84,34.55l-7.36,12.75-7.88-13.65h-15.8l7.37-12.77h15.79l7.89,13.67ZM64.16,50h14.77l-7.37,12.77h-14.77l7.37-12.77ZM38.99,64.57h14.75l-7.37,12.77h-14.75l7.37-12.77ZM37.4,63.73l-7.33,12.7-7.37-12.77,7.33-12.7,7.37,12.77ZM37.36,34.55l-7.36,12.75-7.37-12.76,7.36-12.75,7.37,12.76ZM38.92,33.66l-7.38-12.78h14.77l7.38,12.78h-14.77ZM64.16,48.21l-7.38-12.79h14.79l7.38,12.79h-14.79ZM47.66,48.66h-.02s-.01,0-.01,0l-1.54.89,7.64,13.23h-14.73l-7.93-13.73,7.85-13.6h15.78l7.89,13.67-7.33,12.7-7.6-13.16ZM89.9,63.67l-8.4-14.55.02-.02v-.02s8.38-14.53,8.38-14.53l-8.92-15.45h-16.85l-8.4-14.56h-17.84l-8.4,14.56H12.67l-8.92,15.45,8.44,14.63-8.37,14.49,8.92,15.45h16.8l8.41,14.56h17.84l8.41-14.56h16.77l8.92-15.45Z"/></g><g id="g3500"><g id="g3506"><path id="path3508" class="cls-5" d="M138.33,27.67c-3.46-3.55-8.11-4.64-12.92-4.64h-14.52v52.01h14.52c4.81,0,9.45-1.1,12.92-4.64,4.81-4.9,4.47-15.53,4.47-22.2,0-6.67.34-15.62-4.47-20.52M141.54,73.6c-3.55,3.55-8.78,5.49-15.03,5.49h-20.18V18.97h20.18c6.25,0,11.48,1.94,15.03,5.49,6.08,6.08,5.83,15.62,5.83,23.73s.25,19.33-5.83,25.41"/></g><g id="g3510"><path id="path3512" class="cls-1" d="M209.51,79.09V29.53l-18.24,41.12h-4.56l-18.57-41.12v49.56h-4.56V18.97h4.56l20.94,46.35,20.43-46.35h4.56v60.11h-4.56Z"/></g><g id="g3514"><path id="path3516" class="cls-1" d="M247.67,79.59c-8.95,0-14.52-2.45-20.01-7.94l3.21-3.21c5.4,5.4,9.79,7.09,17.05,7.09,9.46,0,15.45-4.56,15.45-12.41,0-3.55-1.1-6.5-3.29-8.44-2.19-1.86-3.8-2.45-8.7-3.21l-7.01-1.1c-4.56-.67-8.19-2.19-10.72-4.39-3.21-2.7-4.73-6.42-4.73-11.06,0-10.05,7.18-16.46,18.66-16.46,7.43,0,12.16,2.03,17.31,6.5l-2.95,2.96c-3.72-3.29-7.43-5.57-14.61-5.57-8.69,0-13.93,4.81-13.93,12.41,0,3.46,1.01,6.08,3.12,7.85,2.11,1.77,5.57,3.21,8.95,3.72l6.5,1.01c5.66.85,8.19,1.86,10.72,3.97,3.29,2.7,5.23,6.84,5.23,11.65,0,10.13-7.77,16.63-20.26,16.63"/></g><g id="g3518"><path id="path3520" class="cls-1" d="M282.2,79.09V18.97h36.47v4.05h-31.91v23.73h27.18v4.05h-27.18v24.23h31.91v4.05h-36.47Z"/></g></g></svg>