<?xml version="1.0" encoding="UTF-8"?><svg id="Layer_1" xmlns="http://www.w3.org/2000/svg" viewBox="0 0 177.63 107.44"><defs><style>.cls-1{fill:#fff;}.cls-2{fill:#ed1c2e;}</style></defs><rect class="cls-2" x="2.7" y="2.48" width="171.93" height="102.41"/><path class="cls-1" d="M66.22,37.64l-3.43,8.16c-3.74-1.63-6.96-2.45-9.69-2.45-2.5,0-4.95.72-7.35,2.15-2.39,1.43-4.6,3.48-6.61,6.15-2.01,2.67-3.02,4.16-3.02,4.49v36.67h-8.43v-56.7h8.43v11.48c4.53-8.56,10.41-12.84,17.63-12.84,4.28,0,8.43.96,12.46,2.88h0Z"/><path class="cls-1" d="M105.84,85.26v7.35h-31.61V20.85h-5.61v-7.35h14.1v71.75h23.12Z"/><path class="cls-1" d="M120.47,45.74c2.88-2.9,6.52-4.35,10.91-4.35,3.41,0,6.49,1.51,9.25,4.54,2.76,3.03,4.14,6.76,4.14,11.18h-29.11c.33-4.68,1.93-8.47,4.82-11.37h0ZM147.43,41.49c-4.39-4.97-9.85-7.45-16.38-7.45-7.33,0-13.3,2.68-17.93,8.03-4.62,5.35-6.94,12.53-6.94,21.52s2.58,16.47,7.73,21.87c5.15,5.41,11.93,8.11,20.35,8.11,6.67,0,12.52-1.13,17.52-3.37l-1.47-6.8c-5.48,1.85-10.79,2.78-15.94,2.78-5.4,0-9.97-2.08-13.68-6.26-3.72-4.17-5.58-9.47-5.58-15.89h38.91v-2.67c0-8.27-2.19-14.89-6.58-19.86Z"/></svg>